<svg id="Layer_1" data-name="Layer 1" xmlns="http://www.w3.org/2000/svg" xmlns:xlink="http://www.w3.org/1999/xlink" viewBox="0 0 2468.41 1020.8"><defs><style>.cls-1{fill:url(#linear-gradient);}</style><linearGradient id="linear-gradient" x1="1604.98" y1="442.06" x2="2008.44" y2="163.64" gradientUnits="userSpaceOnUse"><stop offset="0" stop-color="#006ab5"/><stop offset="1" stop-color="#e51846"/></linearGradient></defs><title>Artos_Logo_Primary</title><path class="cls-1" d="M2019.15,217.39v188.8c0,107.31-82,196-187,206.32V514.76A110.35,110.35,0,0,0,1922,406.36V217a110.22,110.22,0,0,0-89.79-108.41V10.7C1937.12,21,2019.15,109.71,2019.15,217.39Zm-450.28,0v188.8c0,107.31,82,196,187,206.32V514.76a110.34,110.34,0,0,1-89.8-108.4V217a110.21,110.21,0,0,1,89.8-108.41V10.7C1650.88,21,1568.87,109.71,1568.87,217.39Z"/><path d="M132,868.93,73.73,831.4c-20.76-13.68-30-27.37-30-45.9,0-29.59,23.84-49,60-49a101.56,101.56,0,0,1,65.79,24.29V729.86c-15-9.71-36.65-18.1-64.46-18.1-63.13,0-88.74,38-88.74,74.62,0,27.81,11.92,49,43.71,68.87l57.39,37.08C142.15,908.22,154.07,925,154.07,944c0,26.93-22.07,52.1-64.89,52.1a110.21,110.21,0,0,1-72.41-26.93v31.78a143.17,143.17,0,0,0,72.84,19.87c60.05,0,91.84-37.09,91.84-77.7C181.45,912.64,168.65,891.89,132,868.93Z"/><polygon points="456.5 855.69 372.19 716.18 342.6 716.18 443.7 882.19 443.7 1016.4 469.31 1016.4 469.31 882.19 570.86 716.18 540.83 716.18 456.5 855.69"/><path d="M847.24,868.93,789,831.4c-20.76-13.68-30-27.37-30-45.9,0-29.59,23.84-49,60-49a101.6,101.6,0,0,1,65.79,24.29V729.86c-15-9.71-36.65-18.1-64.46-18.1-63.14,0-88.74,38-88.74,74.62,0,27.81,11.92,49,43.71,68.87l57.39,37.08C857.39,908.22,869.31,925,869.31,944c0,26.93-22.07,52.1-64.89,52.1A110.21,110.21,0,0,1,732,969.15v31.78a143.17,143.17,0,0,0,72.84,19.87c60,0,91.83-37.09,91.83-77.7C896.68,912.64,883.89,891.89,847.24,868.93Z"/><polygon points="1056.52 740.03 1140.41 740.03 1140.41 1016.4 1166 1016.4 1166 740.03 1249 740.03 1249 716.18 1056.52 716.18 1056.52 740.03"/><polygon points="1430.9 1016.4 1587.62 1016.4 1587.62 992.55 1456.51 992.55 1456.51 877.32 1578.79 877.32 1578.79 853.48 1456.51 853.48 1456.51 740.03 1587.62 740.03 1587.62 716.18 1430.9 716.18 1430.9 1016.4"/><polygon points="1940.38 984.17 1821.62 716.18 1792.48 716.18 1792.48 1016.4 1818.1 1016.4 1818.1 767.39 1928.91 1016.4 1952.3 1016.4 2062.66 767.39 2062.66 1016.4 2088.28 1016.4 2088.28 716.18 2059.58 716.18 1940.38 984.17"/><path d="M2402.64,868.93l-58.28-37.53c-20.76-13.68-30-27.37-30-45.9,0-29.59,23.84-49,60-49a101.57,101.57,0,0,1,65.78,24.29V729.86c-15-9.71-36.64-18.1-64.46-18.1-63.14,0-88.74,38-88.74,74.62,0,27.81,11.92,49,43.71,68.87l57.39,37.08c24.72,15.89,36.65,32.67,36.65,51.65,0,26.93-22.07,52.1-64.9,52.1a110.19,110.19,0,0,1-72.41-26.93v31.78a143.21,143.21,0,0,0,72.85,19.87c60,0,91.83-37.09,91.83-77.7C2452.08,912.64,2439.28,891.89,2402.64,868.93Z"/><path d="M166.93,464.41h230l54.16,149.18H563.86L338.31,9.77H225.55L0,613.59H112.78ZM282.38,142.08l81.69,225.54H199.79Z"/><path d="M911,336.54C975.81,318.78,1028.2,269.05,1028.2,182,1028.2,73.7,948.28,9.77,833.74,9.77H640.16V613.59H741.39V374.72h46.17c76.36,0,140.31,97.68,164.28,238.87h104.77C1038.86,476.84,985.58,372.94,911,336.54Zm-78.14-58.6H741.39V106.56h91.46c52.39,0,90.57,31.07,90.57,86.12S885.24,277.94,832.85,277.94Z"/><polygon points="1498.79 9.77 1090.32 9.77 1090.32 106.56 1243.94 106.56 1243.94 613.58 1345.17 613.58 1345.17 106.56 1498.79 106.56 1498.79 9.77"/><path d="M2468.41,450.19c0-65.7-29.3-114.54-106.56-160.71l-92.34-57.72c-32.86-20.43-49.74-41.73-49.74-67.48,0-40,32-68.38,89.7-68.38,48.83,0,99.44,20.43,131.41,45.29V31.08C2405.36,13.32,2360.08,0,2311.23,0c-146.51,0-199.78,87-199.78,167.82,0,63.94,24,112.78,98.55,156.29l94.13,57.71c39.08,24,55.95,47.07,55.95,73.71,0,40-32,71.92-93.25,71.92-58.59,0-114.54-26.64-146.51-52.39V588.72a350.46,350.46,0,0,0,150.95,34.63C2404.46,623.35,2468.41,540.77,2468.41,450.19Z"/></svg>