<svg width="31" height="32" viewBox="0 0 31 32" fill="none" xmlns="http://www.w3.org/2000/svg">
<path d="M13.2857 2.1C13.2857 1.49249 13.7923 1 14.4171 1H15.5829C16.2077 1 16.7143 1.49249 16.7143 2.1V23.2333C16.7143 23.8408 17.2208 24.3333 17.8457 24.3333H20.1429V26.5667C20.1429 27.1742 19.6363 27.6667 19.0114 27.6667H17.8457C17.2208 27.6667 16.7143 28.1592 16.7143 28.7667V29.9C16.7143 30.5075 16.2077 31 15.5829 31H14.4171C13.7923 31 13.2857 30.5075 13.2857 29.9V8.76667C13.2857 8.15915 12.7792 7.66667 12.1543 7.66667H9.85714V5.43333C9.85714 4.82582 10.3637 4.33333 10.9886 4.33333H12.1543C12.7792 4.33333 13.2857 3.84085 13.2857 3.23333V2.1Z" fill="black"/>
<path d="M6.42857 11V8.76667C6.42857 8.15915 6.93513 7.66667 7.56 7.66667H9.85714V9.9C9.85714 10.5075 9.35058 11 8.72571 11H6.42857Z" fill="black"/>
<path d="M6.42857 21H4.13143C3.50656 21 3 20.5075 3 19.9V14.3167V12.1C3 11.4925 3.50656 11 4.13143 11H6.42857V14.35V21Z" fill="black"/>
<path d="M6.42857 21H8.72571C9.35058 21 9.85714 21.4925 9.85714 22.1V23.2333C9.85714 23.8408 9.35058 24.3333 8.72571 24.3333H7.56C6.93513 24.3333 6.42857 23.8408 6.42857 23.2333V21Z" fill="black"/>
<path d="M23.5714 21V23.2333C23.5714 23.8408 23.0649 24.3333 22.44 24.3333H20.1429V22.1C20.1429 21.4925 20.6494 21 21.2743 21H23.5714Z" fill="black"/>
<path d="M23.5714 11H25.8686C26.4934 11 27 11.4925 27 12.1V19.9C27 20.5075 26.4934 21 25.8686 21H23.5714V11Z" fill="black"/>
<path d="M23.5714 11H21.2743C20.6494 11 20.1429 10.5075 20.1429 9.9V8.76667C20.1429 8.15915 20.6494 7.66667 21.2743 7.66667H22.44C23.0649 7.66667 23.5714 8.15915 23.5714 8.76667V11Z" fill="black"/>
</svg>
